<svg width="1440" height="60" viewBox="0 0 1440 60" fill="none" xmlns="http://www.w3.org/2000/svg">
<rect width="1440" height="60" fill="white"/>
<path d="M668.655 34.232H668.143L672.879 24.6H674.159V35H672.879V26.824L673.135 26.888L669.039 35H667.759L663.663 26.904L663.919 26.84V35H662.639V24.6H663.919L668.655 34.232ZM682.142 32.424H683.342C683.256 32.9467 683.064 33.416 682.766 33.832C682.478 34.2373 682.094 34.5627 681.614 34.808C681.144 35.0427 680.6 35.16 679.982 35.16C679.235 35.16 678.563 34.984 677.966 34.632C677.368 34.2693 676.894 33.7787 676.542 33.16C676.2 32.5307 676.03 31.816 676.03 31.016C676.03 30.216 676.195 29.5013 676.526 28.872C676.867 28.2427 677.331 27.7467 677.918 27.384C678.504 27.0213 679.166 26.84 679.902 26.84C680.68 26.84 681.336 27.016 681.87 27.368C682.414 27.7093 682.814 28.216 683.07 28.888C683.336 29.5493 683.443 30.3653 683.39 31.336H677.31C677.363 31.8587 677.507 32.3173 677.742 32.712C677.976 33.1067 678.286 33.416 678.67 33.64C679.054 33.8533 679.491 33.96 679.982 33.96C680.526 33.96 680.984 33.8213 681.358 33.544C681.742 33.256 682.003 32.8827 682.142 32.424ZM679.95 28.04C679.288 28.04 678.734 28.232 678.286 28.616C677.838 29 677.539 29.5227 677.39 30.184H682.078C682.035 29.48 681.806 28.9467 681.39 28.584C680.984 28.2213 680.504 28.04 679.95 28.04ZM685.04 27H686.32V35H685.04V27ZM689.072 26.84C689.499 26.84 689.883 26.904 690.224 27.032C690.565 27.16 690.853 27.3467 691.088 27.592C691.323 27.8373 691.504 28.136 691.632 28.488C691.76 28.8293 691.824 29.2187 691.824 29.656V35H690.544V29.976C690.544 29.3573 690.4 28.8933 690.112 28.584C689.824 28.2747 689.392 28.12 688.816 28.12C688.379 28.12 687.973 28.232 687.6 28.456C687.227 28.68 686.917 28.9893 686.672 29.384C686.437 29.768 686.293 30.216 686.24 30.728L686.224 29.8C686.277 29.352 686.384 28.9467 686.544 28.584C686.715 28.2213 686.923 27.912 687.168 27.656C687.424 27.3893 687.712 27.1867 688.032 27.048C688.363 26.9093 688.709 26.84 689.072 26.84ZM693.339 27H698.043V28.2H693.339V27ZM695.051 24.92H696.331V35H695.051V24.92ZM701.14 23.8V25.352H699.476V23.8H701.14ZM699.668 27H700.948V35H699.668V27ZM706.606 35.16C705.923 35.16 705.283 34.9947 704.686 34.664C704.088 34.3333 703.603 33.8587 703.23 33.24C702.867 32.6107 702.686 31.8693 702.686 31.016C702.686 30.1627 702.867 29.4267 703.23 28.808C703.603 28.1787 704.088 27.6933 704.686 27.352C705.283 27.0107 705.923 26.84 706.606 26.84C707.288 26.84 707.923 27.0107 708.51 27.352C709.107 27.6933 709.587 28.1787 709.95 28.808C710.312 29.4267 710.494 30.1627 710.494 31.016C710.494 31.8693 710.312 32.6107 709.95 33.24C709.587 33.8587 709.107 34.3333 708.51 34.664C707.923 34.9947 707.288 35.16 706.606 35.16ZM706.606 33.96C707.054 33.96 707.475 33.848 707.87 33.624C708.264 33.4 708.584 33.0693 708.83 32.632C709.086 32.184 709.214 31.6453 709.214 31.016C709.214 30.3867 709.086 29.8533 708.83 29.416C708.584 28.968 708.264 28.6267 707.87 28.392C707.475 28.1573 707.054 28.04 706.606 28.04C706.158 28.04 705.731 28.1573 705.326 28.392C704.931 28.616 704.606 28.952 704.35 29.4C704.094 29.8373 703.966 30.376 703.966 31.016C703.966 31.6453 704.088 32.184 704.334 32.632C704.59 33.0693 704.92 33.4 705.326 33.624C705.731 33.848 706.158 33.96 706.606 33.96ZM712.118 27H713.398V35H712.118V27ZM716.15 26.84C716.577 26.84 716.961 26.904 717.302 27.032C717.643 27.16 717.931 27.3467 718.166 27.592C718.401 27.8373 718.582 28.136 718.71 28.488C718.838 28.8293 718.902 29.2187 718.902 29.656V35H717.622V29.976C717.622 29.3573 717.478 28.8933 717.19 28.584C716.902 28.2747 716.47 28.12 715.894 28.12C715.457 28.12 715.051 28.232 714.678 28.456C714.305 28.68 713.995 28.9893 713.75 29.384C713.515 29.768 713.371 30.216 713.318 30.728L713.302 29.8C713.355 29.352 713.462 28.9467 713.622 28.584C713.793 28.2213 714.001 27.912 714.246 27.656C714.502 27.3893 714.79 27.1867 715.11 27.048C715.441 26.9093 715.787 26.84 716.15 26.84ZM720.594 32.424H721.778C721.81 32.8827 721.98 33.256 722.289 33.544C722.61 33.832 723.068 33.976 723.666 33.976C724.028 33.976 724.311 33.928 724.514 33.832C724.727 33.736 724.882 33.608 724.978 33.448C725.074 33.2773 725.122 33.0907 725.122 32.888C725.122 32.6427 725.058 32.4507 724.93 32.312C724.812 32.1627 724.647 32.04 724.434 31.944C724.231 31.848 723.996 31.7573 723.73 31.672C723.42 31.5547 723.1 31.432 722.77 31.304C722.45 31.1653 722.146 31.0053 721.858 30.824C721.58 30.632 721.356 30.4027 721.186 30.136C721.015 29.8587 720.93 29.528 720.93 29.144C720.93 28.824 720.994 28.5253 721.122 28.248C721.25 27.96 721.431 27.7147 721.666 27.512C721.911 27.2987 722.194 27.1333 722.514 27.016C722.844 26.8987 723.207 26.84 723.602 26.84C724.135 26.84 724.583 26.9467 724.946 27.16C725.319 27.3733 725.602 27.6773 725.794 28.072C725.996 28.456 726.103 28.904 726.114 29.416H725.01C724.935 28.936 724.78 28.5893 724.546 28.376C724.322 28.152 723.996 28.04 723.57 28.04C723.132 28.04 722.796 28.136 722.562 28.328C722.327 28.52 722.21 28.776 722.21 29.096C722.21 29.3307 722.295 29.528 722.466 29.688C722.636 29.8373 722.855 29.976 723.122 30.104C723.399 30.2213 723.692 30.344 724.002 30.472C724.311 30.6 724.61 30.728 724.898 30.856C725.186 30.984 725.442 31.1333 725.666 31.304C725.89 31.4747 726.066 31.688 726.194 31.944C726.332 32.1893 726.402 32.4987 726.402 32.872C726.402 33.32 726.295 33.72 726.082 34.072C725.879 34.4133 725.575 34.68 725.17 34.872C724.775 35.064 724.29 35.16 723.714 35.16C723.191 35.16 722.743 35.096 722.37 34.968C722.007 34.8293 721.703 34.6533 721.458 34.44C721.212 34.216 721.02 33.9813 720.882 33.736C720.754 33.4907 720.668 33.2507 720.626 33.016C720.583 32.7813 720.572 32.584 720.594 32.424ZM731.559 23.8H732.839V35H731.559V23.8ZM740.751 32.424H741.951C741.866 32.9467 741.674 33.416 741.375 33.832C741.087 34.2373 740.703 34.5627 740.223 34.808C739.754 35.0427 739.21 35.16 738.591 35.16C737.844 35.16 737.172 34.984 736.575 34.632C735.978 34.2693 735.503 33.7787 735.151 33.16C734.81 32.5307 734.639 31.816 734.639 31.016C734.639 30.216 734.804 29.5013 735.135 28.872C735.476 28.2427 735.94 27.7467 736.527 27.384C737.114 27.0213 737.775 26.84 738.511 26.84C739.29 26.84 739.946 27.016 740.479 27.368C741.023 27.7093 741.423 28.216 741.679 28.888C741.946 29.5493 742.052 30.3653 741.999 31.336H735.919C735.972 31.8587 736.116 32.3173 736.351 32.712C736.586 33.1067 736.895 33.416 737.279 33.64C737.663 33.8533 738.1 33.96 738.591 33.96C739.135 33.96 739.594 33.8213 739.967 33.544C740.351 33.256 740.612 32.8827 740.751 32.424ZM738.559 28.04C737.898 28.04 737.343 28.232 736.895 28.616C736.447 29 736.148 29.5227 735.999 30.184H740.687C740.644 29.48 740.415 28.9467 739.999 28.584C739.594 28.2213 739.114 28.04 738.559 28.04ZM737.871 25.384L739.567 22.808H741.247L739.007 25.384H737.871ZM746.513 33.736C745.948 33.736 745.409 33.6027 744.897 33.336C744.396 33.0587 743.985 32.664 743.665 32.152C743.356 31.64 743.201 31.0267 743.201 30.312C743.201 29.5973 743.356 28.984 743.665 28.472C743.975 27.9493 744.38 27.5493 744.881 27.272C745.383 26.984 745.927 26.84 746.513 26.84C746.695 26.84 746.865 26.856 747.025 26.888C747.196 26.9093 747.356 26.9467 747.505 27H750.753V28.376C750.295 28.376 749.836 28.2907 749.377 28.12C748.929 27.9493 748.545 27.7733 748.225 27.592L748.161 27.528C748.535 27.7307 748.839 27.9707 749.073 28.248C749.319 28.5253 749.5 28.84 749.617 29.192C749.745 29.5333 749.809 29.9067 749.809 30.312C749.809 31.0267 749.655 31.64 749.345 32.152C749.047 32.664 748.647 33.0587 748.145 33.336C747.644 33.6027 747.1 33.736 746.513 33.736ZM748.865 38.2V37.848C748.865 37.2827 748.716 36.872 748.417 36.616C748.129 36.36 747.692 36.232 747.105 36.232H745.505C745.153 36.232 744.844 36.2 744.577 36.136C744.321 36.0827 744.108 35.9973 743.937 35.88C743.767 35.7627 743.639 35.6187 743.553 35.448C743.468 35.2773 743.425 35.0853 743.425 34.872C743.425 34.4667 743.548 34.1627 743.793 33.96C744.039 33.7467 744.343 33.6133 744.705 33.56C745.068 33.5067 745.415 33.5067 745.745 33.56L746.513 33.736C745.937 33.768 745.489 33.8267 745.169 33.912C744.86 33.9973 744.705 34.1787 744.705 34.456C744.705 34.616 744.764 34.7493 744.881 34.856C745.009 34.952 745.196 35 745.441 35H747.105C747.66 35 748.167 35.0747 748.625 35.224C749.084 35.384 749.452 35.6453 749.729 36.008C750.007 36.3813 750.145 36.888 750.145 37.528V38.2H748.865ZM746.513 32.536C746.865 32.536 747.191 32.4507 747.489 32.28C747.799 32.1093 748.049 31.8587 748.241 31.528C748.433 31.1973 748.529 30.792 748.529 30.312C748.529 29.832 748.433 29.4267 748.241 29.096C748.06 28.7547 747.815 28.4987 747.505 28.328C747.196 28.1467 746.865 28.056 746.513 28.056C746.161 28.056 745.831 28.1467 745.521 28.328C745.212 28.4987 744.961 28.7493 744.769 29.08C744.577 29.4107 744.481 29.8213 744.481 30.312C744.481 30.792 744.577 31.1973 744.769 31.528C744.961 31.8587 745.212 32.1093 745.521 32.28C745.831 32.4507 746.161 32.536 746.513 32.536ZM755.283 35.16C754.653 35.16 754.072 34.984 753.539 34.632C753.016 34.2693 752.595 33.7787 752.275 33.16C751.965 32.5307 751.811 31.816 751.811 31.016C751.811 30.216 751.971 29.5013 752.291 28.872C752.611 28.2427 753.043 27.7467 753.587 27.384C754.141 27.0213 754.76 26.84 755.443 26.84C756.189 26.84 756.755 27.032 757.139 27.416C757.533 27.7893 757.8 28.2907 757.939 28.92C758.088 29.5493 758.163 30.248 758.163 31.016C758.163 31.4213 758.12 31.864 758.035 32.344C757.949 32.8133 757.8 33.2667 757.587 33.704C757.384 34.1307 757.096 34.4827 756.723 34.76C756.349 35.0267 755.869 35.16 755.283 35.16ZM755.603 33.944C756.147 33.944 756.595 33.8107 756.947 33.544C757.309 33.2773 757.576 32.9253 757.747 32.488C757.917 32.04 758.003 31.5493 758.003 31.016C758.003 30.4293 757.912 29.9173 757.731 29.48C757.56 29.032 757.293 28.6853 756.931 28.44C756.579 28.184 756.136 28.056 755.603 28.056C754.803 28.056 754.184 28.3387 753.747 28.904C753.309 29.4587 753.091 30.1627 753.091 31.016C753.091 31.5813 753.197 32.088 753.411 32.536C753.635 32.9733 753.933 33.32 754.307 33.576C754.691 33.8213 755.123 33.944 755.603 33.944ZM758.003 27H759.283V35H758.115C758.115 35 758.104 34.904 758.083 34.712C758.072 34.52 758.056 34.296 758.035 34.04C758.013 33.784 758.003 33.5707 758.003 33.4V27ZM761.528 23.8H762.808V35H761.528V23.8ZM770.72 32.424H771.92C771.834 32.9467 771.642 33.416 771.344 33.832C771.056 34.2373 770.672 34.5627 770.192 34.808C769.722 35.0427 769.178 35.16 768.56 35.16C767.813 35.16 767.141 34.984 766.544 34.632C765.946 34.2693 765.472 33.7787 765.12 33.16C764.778 32.5307 764.608 31.816 764.608 31.016C764.608 30.216 764.773 29.5013 765.104 28.872C765.445 28.2427 765.909 27.7467 766.496 27.384C767.082 27.0213 767.744 26.84 768.48 26.84C769.258 26.84 769.914 27.016 770.448 27.368C770.992 27.7093 771.392 28.216 771.648 28.888C771.914 29.5493 772.021 30.3653 771.968 31.336H765.888C765.941 31.8587 766.085 32.3173 766.32 32.712C766.554 33.1067 766.864 33.416 767.248 33.64C767.632 33.8533 768.069 33.96 768.56 33.96C769.104 33.96 769.562 33.8213 769.936 33.544C770.32 33.256 770.581 32.8827 770.72 32.424ZM768.528 28.04C767.866 28.04 767.312 28.232 766.864 28.616C766.416 29 766.117 29.5227 765.968 30.184H770.656C770.613 29.48 770.384 28.9467 769.968 28.584C769.562 28.2213 769.082 28.04 768.528 28.04ZM773.234 32.424H774.418C774.45 32.8827 774.621 33.256 774.93 33.544C775.25 33.832 775.709 33.976 776.306 33.976C776.669 33.976 776.951 33.928 777.154 33.832C777.367 33.736 777.522 33.608 777.618 33.448C777.714 33.2773 777.762 33.0907 777.762 32.888C777.762 32.6427 777.698 32.4507 777.57 32.312C777.453 32.1627 777.287 32.04 777.074 31.944C776.871 31.848 776.637 31.7573 776.37 31.672C776.061 31.5547 775.741 31.432 775.41 31.304C775.09 31.1653 774.786 31.0053 774.498 30.824C774.221 30.632 773.997 30.4027 773.826 30.136C773.655 29.8587 773.57 29.528 773.57 29.144C773.57 28.824 773.634 28.5253 773.762 28.248C773.89 27.96 774.071 27.7147 774.306 27.512C774.551 27.2987 774.834 27.1333 775.154 27.016C775.485 26.8987 775.847 26.84 776.242 26.84C776.775 26.84 777.223 26.9467 777.586 27.16C777.959 27.3733 778.242 27.6773 778.434 28.072C778.637 28.456 778.743 28.904 778.754 29.416H777.65C777.575 28.936 777.421 28.5893 777.186 28.376C776.962 28.152 776.637 28.04 776.21 28.04C775.773 28.04 775.437 28.136 775.202 28.328C774.967 28.52 774.85 28.776 774.85 29.096C774.85 29.3307 774.935 29.528 775.106 29.688C775.277 29.8373 775.495 29.976 775.762 30.104C776.039 30.2213 776.333 30.344 776.642 30.472C776.951 30.6 777.25 30.728 777.538 30.856C777.826 30.984 778.082 31.1333 778.306 31.304C778.53 31.4747 778.706 31.688 778.834 31.944C778.973 32.1893 779.042 32.4987 779.042 32.872C779.042 33.32 778.935 33.72 778.722 34.072C778.519 34.4133 778.215 34.68 777.81 34.872C777.415 35.064 776.93 35.16 776.354 35.16C775.831 35.16 775.383 35.096 775.01 34.968C774.647 34.8293 774.343 34.6533 774.098 34.44C773.853 34.216 773.661 33.9813 773.522 33.736C773.394 33.4907 773.309 33.2507 773.266 33.016C773.223 32.7813 773.213 32.584 773.234 32.424Z" fill="black"/>
</svg>
