<svg width="1440" height="80" viewBox="0 0 1440 80" fill="none" xmlns="http://www.w3.org/2000/svg">
<rect width="1440" height="80" fill="white"/>
<rect x="1204" width="236" height="80" fill="#DC9F96"/>
<path d="M1278.65 41.272C1278.55 42.104 1278.26 42.8133 1277.77 43.4C1277.28 43.9867 1276.61 44.4347 1275.77 44.744C1274.93 45.0533 1273.92 45.208 1272.76 45.208C1271.79 45.208 1270.9 45.096 1270.09 44.872C1269.29 44.648 1268.59 44.312 1268.01 43.864C1267.43 43.416 1266.98 42.8613 1266.66 42.2C1266.34 41.528 1266.18 40.744 1266.18 39.848C1266.18 38.952 1266.34 38.168 1266.66 37.496C1266.98 36.824 1267.43 36.264 1268.01 35.816C1268.59 35.3573 1269.29 35.016 1270.09 34.792C1270.9 34.5573 1271.79 34.44 1272.76 34.44C1273.92 34.44 1274.93 34.6 1275.77 34.92C1276.62 35.24 1277.29 35.6987 1277.78 36.296C1278.27 36.8827 1278.56 37.5973 1278.65 38.44H1276.54C1276.4 37.992 1276.16 37.608 1275.83 37.288C1275.51 36.9573 1275.1 36.7067 1274.58 36.536C1274.07 36.3653 1273.46 36.28 1272.76 36.28C1271.89 36.28 1271.12 36.4187 1270.46 36.696C1269.79 36.9627 1269.28 37.3627 1268.92 37.896C1268.56 38.4187 1268.38 39.0693 1268.38 39.848C1268.38 40.616 1268.56 41.2613 1268.92 41.784C1269.28 42.3067 1269.79 42.7067 1270.46 42.984C1271.12 43.2507 1271.89 43.384 1272.76 43.384C1273.46 43.384 1274.07 43.2987 1274.57 43.128C1275.08 42.9573 1275.5 42.712 1275.82 42.392C1276.15 42.072 1276.39 41.6987 1276.54 41.272H1278.65ZM1285.14 45.192C1284.14 45.192 1283.25 45.032 1282.48 44.712C1281.73 44.392 1281.13 43.928 1280.71 43.32C1280.28 42.7013 1280.07 41.944 1280.07 41.048C1280.07 40.152 1280.28 39.3947 1280.71 38.776C1281.13 38.1467 1281.73 37.672 1282.48 37.352C1283.25 37.032 1284.14 36.872 1285.14 36.872C1286.14 36.872 1287.02 37.032 1287.76 37.352C1288.52 37.672 1289.11 38.1467 1289.54 38.776C1289.97 39.3947 1290.18 40.152 1290.18 41.048C1290.18 41.944 1289.97 42.7013 1289.54 43.32C1289.11 43.928 1288.52 44.392 1287.76 44.712C1287.02 45.032 1286.14 45.192 1285.14 45.192ZM1285.14 43.592C1285.69 43.592 1286.19 43.496 1286.63 43.304C1287.08 43.1013 1287.43 42.8133 1287.68 42.44C1287.94 42.056 1288.07 41.592 1288.07 41.048C1288.07 40.504 1287.94 40.04 1287.68 39.656C1287.43 39.2613 1287.08 38.9627 1286.64 38.76C1286.21 38.5573 1285.71 38.456 1285.14 38.456C1284.59 38.456 1284.08 38.5573 1283.64 38.76C1283.19 38.9627 1282.83 39.256 1282.56 39.64C1282.31 40.024 1282.18 40.4933 1282.18 41.048C1282.18 41.592 1282.31 42.056 1282.56 42.44C1282.82 42.8133 1283.17 43.1013 1283.62 43.304C1284.07 43.496 1284.57 43.592 1285.14 43.592ZM1291.72 37.048H1293.8V45H1291.72V37.048ZM1297.49 36.872C1297.98 36.872 1298.44 36.936 1298.85 37.064C1299.27 37.192 1299.63 37.3893 1299.94 37.656C1300.25 37.9227 1300.49 38.264 1300.66 38.68C1300.83 39.0853 1300.92 39.5707 1300.92 40.136V45H1298.84V40.504C1298.84 39.832 1298.67 39.3413 1298.34 39.032C1298.02 38.712 1297.49 38.552 1296.76 38.552C1296.2 38.552 1295.7 38.6587 1295.25 38.872C1294.81 39.0853 1294.44 39.3573 1294.17 39.688C1293.89 40.008 1293.73 40.344 1293.69 40.696L1293.67 39.88C1293.72 39.5067 1293.85 39.144 1294.04 38.792C1294.23 38.44 1294.49 38.12 1294.81 37.832C1295.14 37.5333 1295.53 37.2987 1295.97 37.128C1296.42 36.9573 1296.93 36.872 1297.49 36.872ZM1304.42 36.872C1304.91 36.872 1305.37 36.936 1305.78 37.064C1306.2 37.192 1306.56 37.3893 1306.87 37.656C1307.18 37.9227 1307.42 38.264 1307.59 38.68C1307.77 39.0853 1307.86 39.5707 1307.86 40.136V45H1305.78V40.504C1305.78 39.832 1305.62 39.3413 1305.29 39.032C1304.96 38.712 1304.42 38.552 1303.69 38.552C1303.13 38.552 1302.63 38.6587 1302.18 38.872C1301.73 39.0853 1301.37 39.3573 1301.09 39.688C1300.82 40.008 1300.66 40.344 1300.63 40.696L1300.6 39.832C1300.65 39.48 1300.78 39.128 1300.98 38.776C1301.18 38.424 1301.45 38.104 1301.78 37.816C1302.11 37.528 1302.5 37.2987 1302.93 37.128C1303.38 36.9573 1303.88 36.872 1304.42 36.872ZM1309.75 37.048H1311.83V45H1309.75V37.048ZM1315.53 36.872C1316.02 36.872 1316.47 36.936 1316.89 37.064C1317.3 37.192 1317.66 37.3893 1317.97 37.656C1318.28 37.9227 1318.52 38.264 1318.69 38.68C1318.86 39.0853 1318.95 39.5707 1318.95 40.136V45H1316.87V40.504C1316.87 39.832 1316.7 39.3413 1316.37 39.032C1316.05 38.712 1315.53 38.552 1314.79 38.552C1314.23 38.552 1313.73 38.6587 1313.29 38.872C1312.84 39.0853 1312.47 39.3573 1312.2 39.688C1311.92 40.008 1311.76 40.344 1311.72 40.696L1311.7 39.88C1311.75 39.5067 1311.88 39.144 1312.07 38.792C1312.26 38.44 1312.52 38.12 1312.84 37.832C1313.17 37.5333 1313.56 37.2987 1314.01 37.128C1314.45 36.9573 1314.96 36.872 1315.53 36.872ZM1322.45 36.872C1322.94 36.872 1323.4 36.936 1323.81 37.064C1324.23 37.192 1324.59 37.3893 1324.9 37.656C1325.21 37.9227 1325.45 38.264 1325.62 38.68C1325.8 39.0853 1325.89 39.5707 1325.89 40.136V45H1323.81V40.504C1323.81 39.832 1323.65 39.3413 1323.32 39.032C1322.99 38.712 1322.45 38.552 1321.72 38.552C1321.16 38.552 1320.66 38.6587 1320.21 38.872C1319.77 39.0853 1319.4 39.3573 1319.13 39.688C1318.85 40.008 1318.69 40.344 1318.66 40.696L1318.63 39.832C1318.68 39.48 1318.81 39.128 1319.01 38.776C1319.22 38.424 1319.48 38.104 1319.81 37.816C1320.14 37.528 1320.53 37.2987 1320.97 37.128C1321.41 36.9573 1321.91 36.872 1322.45 36.872ZM1331.65 45.176C1330.86 45.176 1330.14 45.0053 1329.49 44.664C1328.85 44.312 1328.34 43.8267 1327.96 43.208C1327.58 42.5787 1327.4 41.8533 1327.4 41.032C1327.4 40.1893 1327.59 39.4587 1327.97 38.84C1328.36 38.2213 1328.87 37.7413 1329.52 37.4C1330.19 37.048 1330.93 36.872 1331.76 36.872C1332.68 36.872 1333.42 37.0587 1333.97 37.432C1334.54 37.7947 1334.95 38.2907 1335.2 38.92C1335.46 39.5493 1335.59 40.2533 1335.59 41.032C1335.59 41.5013 1335.51 41.9813 1335.36 42.472C1335.21 42.952 1334.99 43.4 1334.68 43.816C1334.37 44.2213 1333.96 44.552 1333.46 44.808C1332.96 45.0533 1332.36 45.176 1331.65 45.176ZM1332.32 43.576C1332.95 43.576 1333.5 43.4693 1333.96 43.256C1334.41 43.0427 1334.77 42.744 1335.01 42.36C1335.26 41.976 1335.38 41.5333 1335.38 41.032C1335.38 40.488 1335.25 40.0293 1335 39.656C1334.75 39.272 1334.4 38.984 1333.94 38.792C1333.49 38.5893 1332.95 38.488 1332.32 38.488C1331.44 38.488 1330.75 38.7227 1330.26 39.192C1329.77 39.6507 1329.52 40.264 1329.52 41.032C1329.52 41.544 1329.64 41.992 1329.88 42.376C1330.11 42.7493 1330.44 43.0427 1330.85 43.256C1331.28 43.4693 1331.77 43.576 1332.32 43.576ZM1335.38 37.048H1337.46V45H1335.52C1335.52 45 1335.51 44.8987 1335.48 44.696C1335.45 44.4827 1335.43 44.216 1335.41 43.896C1335.39 43.576 1335.38 43.2613 1335.38 42.952V37.048ZM1339.34 37.048H1341.42V45H1339.34V37.048ZM1345.12 36.872C1345.61 36.872 1346.06 36.936 1346.48 37.064C1346.89 37.192 1347.26 37.3893 1347.57 37.656C1347.88 37.9227 1348.12 38.264 1348.29 38.68C1348.46 39.0853 1348.54 39.5707 1348.54 40.136V45H1346.46V40.504C1346.46 39.832 1346.3 39.3413 1345.97 39.032C1345.65 38.712 1345.12 38.552 1344.38 38.552C1343.83 38.552 1343.33 38.6587 1342.88 38.872C1342.43 39.0853 1342.07 39.3573 1341.79 39.688C1341.51 40.008 1341.35 40.344 1341.31 40.696L1341.29 39.88C1341.35 39.5067 1341.47 39.144 1341.66 38.792C1341.85 38.44 1342.11 38.12 1342.43 37.832C1342.76 37.5333 1343.15 37.2987 1343.6 37.128C1344.05 36.9573 1344.55 36.872 1345.12 36.872ZM1354.31 45.176C1353.51 45.176 1352.78 45.0053 1352.13 44.664C1351.49 44.312 1350.99 43.8267 1350.61 43.208C1350.24 42.5787 1350.05 41.8533 1350.05 41.032C1350.05 40.1893 1350.23 39.4587 1350.6 38.84C1350.97 38.2213 1351.48 37.7413 1352.12 37.4C1352.76 37.048 1353.49 36.872 1354.31 36.872C1355.02 36.872 1355.63 36.9787 1356.13 37.192C1356.63 37.4053 1357.04 37.704 1357.35 38.088C1357.66 38.4613 1357.88 38.8987 1358.02 39.4C1358.17 39.9013 1358.24 40.4453 1358.24 41.032C1358.24 41.5013 1358.17 41.9813 1358.02 42.472C1357.87 42.952 1357.64 43.4 1357.33 43.816C1357.02 44.2213 1356.62 44.552 1356.12 44.808C1355.62 45.0533 1355.01 45.176 1354.31 45.176ZM1354.98 43.576C1355.61 43.576 1356.15 43.4693 1356.61 43.256C1357.07 43.0427 1357.42 42.744 1357.67 42.36C1357.91 41.976 1358.04 41.5333 1358.04 41.032C1358.04 40.488 1357.91 40.0293 1357.65 39.656C1357.41 39.272 1357.06 38.9787 1356.6 38.776C1356.15 38.5733 1355.61 38.472 1354.98 38.472C1354.1 38.472 1353.41 38.7067 1352.92 39.176C1352.43 39.6453 1352.18 40.264 1352.18 41.032C1352.18 41.544 1352.3 41.992 1352.53 42.376C1352.77 42.7493 1353.09 43.0427 1353.51 43.256C1353.94 43.4693 1354.43 43.576 1354.98 43.576ZM1358.04 33.848H1360.12V45H1358.18C1358.15 44.7547 1358.12 44.44 1358.08 44.056C1358.05 43.6613 1358.04 43.2933 1358.04 42.952V33.848ZM1369.61 42.36H1371.62C1371.54 42.904 1371.31 43.3893 1370.93 43.816C1370.57 44.2427 1370.08 44.5787 1369.45 44.824C1368.82 45.0693 1368.05 45.192 1367.14 45.192C1366.13 45.192 1365.23 45.032 1364.45 44.712C1363.68 44.3813 1363.07 43.9067 1362.63 43.288C1362.19 42.6693 1361.97 41.9227 1361.97 41.048C1361.97 40.1733 1362.19 39.4267 1362.61 38.808C1363.04 38.1787 1363.63 37.6987 1364.39 37.368C1365.16 37.0373 1366.05 36.872 1367.08 36.872C1368.12 36.872 1368.99 37.0373 1369.69 37.368C1370.38 37.6987 1370.89 38.2 1371.22 38.872C1371.56 39.5333 1371.71 40.3813 1371.65 41.416H1364.07C1364.12 41.8213 1364.27 42.1893 1364.52 42.52C1364.77 42.8507 1365.12 43.112 1365.54 43.304C1365.98 43.496 1366.5 43.592 1367.09 43.592C1367.76 43.592 1368.31 43.48 1368.74 43.256C1369.19 43.0213 1369.48 42.7227 1369.61 42.36ZM1366.98 38.456C1366.21 38.456 1365.59 38.6267 1365.11 38.968C1364.63 39.2987 1364.32 39.7093 1364.18 40.2H1369.59C1369.54 39.6667 1369.28 39.2453 1368.82 38.936C1368.37 38.616 1367.76 38.456 1366.98 38.456ZM1373.2 37.048H1375.28V45H1373.2V37.048ZM1378.34 38.76C1377.74 38.76 1377.22 38.8773 1376.79 39.112C1376.35 39.336 1376 39.6133 1375.73 39.944C1375.46 40.2747 1375.28 40.5947 1375.17 40.904L1375.15 40.024C1375.16 39.896 1375.21 39.7093 1375.28 39.464C1375.36 39.208 1375.47 38.936 1375.62 38.648C1375.77 38.3493 1375.96 38.0667 1376.21 37.8C1376.46 37.5227 1376.75 37.2987 1377.11 37.128C1377.46 36.9573 1377.87 36.872 1378.34 36.872V38.76Z" fill="white"/>
<path d="M932.312 44.48L931.96 44.592V35.6H933.24V46H931.96L925.208 37.136L925.56 37.024V46H924.28V35.6H925.56L932.312 44.48ZM939.028 46.16C938.345 46.16 937.705 45.9947 937.108 45.664C936.51 45.3333 936.025 44.8587 935.652 44.24C935.289 43.6107 935.108 42.8693 935.108 42.016C935.108 41.1627 935.289 40.4267 935.652 39.808C936.025 39.1787 936.51 38.6933 937.108 38.352C937.705 38.0107 938.345 37.84 939.028 37.84C939.71 37.84 940.345 38.0107 940.932 38.352C941.529 38.6933 942.009 39.1787 942.372 39.808C942.734 40.4267 942.916 41.1627 942.916 42.016C942.916 42.8693 942.734 43.6107 942.372 44.24C942.009 44.8587 941.529 45.3333 940.932 45.664C940.345 45.9947 939.71 46.16 939.028 46.16ZM939.028 44.96C939.476 44.96 939.897 44.848 940.292 44.624C940.686 44.4 941.006 44.0693 941.252 43.632C941.508 43.184 941.636 42.6453 941.636 42.016C941.636 41.3867 941.508 40.8533 941.252 40.416C941.006 39.968 940.686 39.6267 940.292 39.392C939.897 39.1573 939.476 39.04 939.028 39.04C938.58 39.04 938.153 39.1573 937.748 39.392C937.353 39.616 937.028 39.952 936.772 40.4C936.516 40.8373 936.388 41.376 936.388 42.016C936.388 42.6453 936.51 43.184 936.756 43.632C937.012 44.0693 937.342 44.4 937.748 44.624C938.153 44.848 938.58 44.96 939.028 44.96ZM951.324 46H950.044V38H951.324V46ZM950.124 42.272L950.14 42.72C950.129 42.848 950.097 43.0453 950.044 43.312C950.001 43.5787 949.921 43.8773 949.804 44.208C949.697 44.528 949.537 44.8373 949.324 45.136C949.121 45.4347 948.855 45.68 948.524 45.872C948.204 46.064 947.804 46.16 947.324 46.16C947.015 46.16 946.695 46.112 946.364 46.016C946.044 45.9307 945.745 45.7867 945.468 45.584C945.191 45.3707 944.967 45.0773 944.796 44.704C944.625 44.3307 944.54 43.8667 944.54 43.312V38H945.82V42.992C945.82 43.472 945.895 43.8507 946.044 44.128C946.204 44.3947 946.417 44.5867 946.684 44.704C946.951 44.8213 947.249 44.88 947.58 44.88C948.124 44.88 948.577 44.7413 948.94 44.464C949.303 44.1867 949.58 43.8453 949.772 43.44C949.964 43.0347 950.081 42.6453 950.124 42.272ZM953.015 43.424H954.199C954.231 43.8827 954.402 44.256 954.711 44.544C955.031 44.832 955.49 44.976 956.087 44.976C956.45 44.976 956.733 44.928 956.935 44.832C957.149 44.736 957.303 44.608 957.399 44.448C957.495 44.2773 957.543 44.0907 957.543 43.888C957.543 43.6427 957.479 43.4507 957.351 43.312C957.234 43.1627 957.069 43.04 956.855 42.944C956.653 42.848 956.418 42.7573 956.151 42.672C955.842 42.5547 955.522 42.432 955.191 42.304C954.871 42.1653 954.567 42.0053 954.279 41.824C954.002 41.632 953.778 41.4027 953.607 41.136C953.437 40.8587 953.351 40.528 953.351 40.144C953.351 39.824 953.415 39.5253 953.543 39.248C953.671 38.96 953.853 38.7147 954.087 38.512C954.333 38.2987 954.615 38.1333 954.935 38.016C955.266 37.8987 955.629 37.84 956.023 37.84C956.557 37.84 957.005 37.9467 957.367 38.16C957.741 38.3733 958.023 38.6773 958.215 39.072C958.418 39.456 958.525 39.904 958.535 40.416H957.431C957.357 39.936 957.202 39.5893 956.967 39.376C956.743 39.152 956.418 39.04 955.991 39.04C955.554 39.04 955.218 39.136 954.983 39.328C954.749 39.52 954.631 39.776 954.631 40.096C954.631 40.3307 954.717 40.528 954.887 40.688C955.058 40.8373 955.277 40.976 955.543 41.104C955.821 41.2213 956.114 41.344 956.423 41.472C956.733 41.6 957.031 41.728 957.319 41.856C957.607 41.984 957.863 42.1333 958.087 42.304C958.311 42.4747 958.487 42.688 958.615 42.944C958.754 43.1893 958.823 43.4987 958.823 43.872C958.823 44.32 958.717 44.72 958.503 45.072C958.301 45.4133 957.997 45.68 957.591 45.872C957.197 46.064 956.711 46.16 956.135 46.16C955.613 46.16 955.165 46.096 954.791 45.968C954.429 45.8293 954.125 45.6533 953.879 45.44C953.634 45.216 953.442 44.9813 953.303 44.736C953.175 44.4907 953.09 44.2507 953.047 44.016C953.005 43.7813 952.994 43.584 953.015 43.424ZM963.821 38H965.101V46H963.821V38ZM967.661 39.2C967.117 39.2 966.659 39.3387 966.285 39.616C965.923 39.8827 965.635 40.2133 965.421 40.608C965.219 40.992 965.085 41.3653 965.021 41.728L965.005 40.8C965.005 40.704 965.027 40.544 965.069 40.32C965.112 40.096 965.192 39.8453 965.309 39.568C965.427 39.28 965.581 39.008 965.773 38.752C965.976 38.4853 966.232 38.2667 966.541 38.096C966.851 37.9253 967.224 37.84 967.661 37.84V39.2ZM974.767 43.424H975.967C975.881 43.9467 975.689 44.416 975.391 44.832C975.103 45.2373 974.719 45.5627 974.239 45.808C973.769 46.0427 973.225 46.16 972.607 46.16C971.86 46.16 971.188 45.984 970.591 45.632C969.993 45.2693 969.519 44.7787 969.167 44.16C968.825 43.5307 968.655 42.816 968.655 42.016C968.655 41.216 968.82 40.5013 969.151 39.872C969.492 39.2427 969.956 38.7467 970.543 38.384C971.129 38.0213 971.791 37.84 972.527 37.84C973.305 37.84 973.961 38.016 974.495 38.368C975.039 38.7093 975.439 39.216 975.695 39.888C975.961 40.5493 976.068 41.3653 976.015 42.336H969.935C969.988 42.8587 970.132 43.3173 970.367 43.712C970.601 44.1067 970.911 44.416 971.295 44.64C971.679 44.8533 972.116 44.96 972.607 44.96C973.151 44.96 973.609 44.8213 973.983 44.544C974.367 44.256 974.628 43.8827 974.767 43.424ZM972.575 39.04C971.913 39.04 971.359 39.232 970.911 39.616C970.463 40 970.164 40.5227 970.015 41.184H974.703C974.66 40.48 974.431 39.9467 974.015 39.584C973.609 39.2213 973.129 39.04 972.575 39.04ZM977.665 38H978.945V46H977.665V38ZM981.697 37.84C982.124 37.84 982.508 37.904 982.849 38.032C983.19 38.16 983.478 38.3467 983.713 38.592C983.948 38.8373 984.129 39.136 984.257 39.488C984.385 39.8293 984.449 40.2187 984.449 40.656V46H983.169V40.976C983.169 40.3573 983.025 39.8933 982.737 39.584C982.449 39.2747 982.017 39.12 981.441 39.12C981.004 39.12 980.598 39.232 980.225 39.456C979.852 39.68 979.542 39.9893 979.297 40.384C979.062 40.768 978.918 41.216 978.865 41.728L978.849 40.8C978.902 40.352 979.009 39.9467 979.169 39.584C979.34 39.2213 979.548 38.912 979.793 38.656C980.049 38.3893 980.337 38.1867 980.657 38.048C980.988 37.9093 981.334 37.84 981.697 37.84ZM993.628 42.992C993.554 43.6533 993.34 44.224 992.988 44.704C992.647 45.1733 992.215 45.536 991.692 45.792C991.17 46.0373 990.604 46.16 989.996 46.16C989.314 46.16 988.674 45.9947 988.076 45.664C987.479 45.3333 986.994 44.8587 986.62 44.24C986.258 43.6107 986.076 42.8693 986.076 42.016C986.076 41.1627 986.258 40.4267 986.62 39.808C986.994 39.1787 987.479 38.6933 988.076 38.352C988.674 38.0107 989.314 37.84 989.996 37.84C990.604 37.84 991.164 37.968 991.676 38.224C992.199 38.48 992.631 38.8427 992.972 39.312C993.324 39.7813 993.543 40.3413 993.628 40.992H992.46C992.279 40.384 991.964 39.9093 991.516 39.568C991.068 39.216 990.562 39.04 989.996 39.04C989.538 39.04 989.106 39.1573 988.7 39.392C988.295 39.6267 987.97 39.968 987.724 40.416C987.479 40.8533 987.356 41.3867 987.356 42.016C987.356 42.6347 987.479 43.168 987.724 43.616C987.97 44.0533 988.29 44.3893 988.684 44.624C989.09 44.848 989.527 44.96 989.996 44.96C990.647 44.96 991.175 44.7893 991.58 44.448C991.996 44.096 992.295 43.6107 992.476 42.992H993.628ZM998.731 46.16C998.048 46.16 997.408 45.9947 996.811 45.664C996.213 45.3333 995.728 44.8587 995.355 44.24C994.992 43.6107 994.811 42.8693 994.811 42.016C994.811 41.1627 994.992 40.4267 995.355 39.808C995.728 39.1787 996.213 38.6933 996.811 38.352C997.408 38.0107 998.048 37.84 998.731 37.84C999.413 37.84 1000.05 38.0107 1000.63 38.352C1001.23 38.6933 1001.71 39.1787 1002.07 39.808C1002.44 40.4267 1002.62 41.1627 1002.62 42.016C1002.62 42.8693 1002.44 43.6107 1002.07 44.24C1001.71 44.8587 1001.23 45.3333 1000.63 45.664C1000.05 45.9947 999.413 46.16 998.731 46.16ZM998.731 44.96C999.179 44.96 999.6 44.848 999.995 44.624C1000.39 44.4 1000.71 44.0693 1000.95 43.632C1001.21 43.184 1001.34 42.6453 1001.34 42.016C1001.34 41.3867 1001.21 40.8533 1000.95 40.416C1000.71 39.968 1000.39 39.6267 999.995 39.392C999.6 39.1573 999.179 39.04 998.731 39.04C998.283 39.04 997.856 39.1573 997.451 39.392C997.056 39.616 996.731 39.952 996.475 40.4C996.219 40.8373 996.091 41.376 996.091 42.016C996.091 42.6453 996.213 43.184 996.459 43.632C996.715 44.0693 997.045 44.4 997.451 44.624C997.856 44.848 998.283 44.96 998.731 44.96ZM1004.24 38H1005.52V46H1004.24V38ZM1008.28 37.84C1008.7 37.84 1009.09 37.904 1009.43 38.032C1009.77 38.16 1010.06 38.3467 1010.29 38.592C1010.53 38.8373 1010.71 39.136 1010.84 39.488C1010.96 39.8293 1011.03 40.2187 1011.03 40.656V46H1009.75V40.976C1009.75 40.3573 1009.6 39.8933 1009.32 39.584C1009.03 39.2747 1008.6 39.12 1008.02 39.12C1007.58 39.12 1007.18 39.232 1006.8 39.456C1006.43 39.68 1006.12 39.9893 1005.88 40.384C1005.64 40.768 1005.5 41.216 1005.44 41.728L1005.43 40.8C1005.48 40.352 1005.59 39.9467 1005.75 39.584C1005.92 39.2213 1006.13 38.912 1006.37 38.656C1006.63 38.3893 1006.92 38.1867 1007.24 38.048C1007.57 37.9093 1007.91 37.84 1008.28 37.84ZM1012.54 38H1017.25V39.2H1012.54V38ZM1014.25 35.92H1015.53V46H1014.25V35.92ZM1018.76 38H1020.04V46H1018.76V38ZM1022.6 39.2C1022.05 39.2 1021.6 39.3387 1021.22 39.616C1020.86 39.8827 1020.57 40.2133 1020.36 40.608C1020.16 40.992 1020.02 41.3653 1019.96 41.728L1019.94 40.8C1019.94 40.704 1019.96 40.544 1020.01 40.32C1020.05 40.096 1020.13 39.8453 1020.25 39.568C1020.36 39.28 1020.52 39.008 1020.71 38.752C1020.91 38.4853 1021.17 38.2667 1021.48 38.096C1021.79 37.9253 1022.16 37.84 1022.6 37.84V39.2ZM1029.7 43.424H1030.9C1030.82 43.9467 1030.63 44.416 1030.33 44.832C1030.04 45.2373 1029.66 45.5627 1029.18 45.808C1028.71 46.0427 1028.16 46.16 1027.54 46.16C1026.8 46.16 1026.13 45.984 1025.53 45.632C1024.93 45.2693 1024.46 44.7787 1024.1 44.16C1023.76 43.5307 1023.59 42.816 1023.59 42.016C1023.59 41.216 1023.76 40.5013 1024.09 39.872C1024.43 39.2427 1024.89 38.7467 1025.48 38.384C1026.07 38.0213 1026.73 37.84 1027.46 37.84C1028.24 37.84 1028.9 38.016 1029.43 38.368C1029.98 38.7093 1030.38 39.216 1030.63 39.888C1030.9 40.5493 1031.01 41.3653 1030.95 42.336H1024.87C1024.93 42.8587 1025.07 43.3173 1025.3 43.712C1025.54 44.1067 1025.85 44.416 1026.23 44.64C1026.62 44.8533 1027.05 44.96 1027.54 44.96C1028.09 44.96 1028.55 44.8213 1028.92 44.544C1029.3 44.256 1029.57 43.8827 1029.7 43.424ZM1027.51 39.04C1026.85 39.04 1026.3 39.232 1025.85 39.616C1025.4 40 1025.1 40.5227 1024.95 41.184H1029.64C1029.6 40.48 1029.37 39.9467 1028.95 39.584C1028.55 39.2213 1028.07 39.04 1027.51 39.04ZM1032.6 38H1033.88V46H1032.6V38ZM1036.44 39.2C1035.9 39.2 1035.44 39.3387 1035.07 39.616C1034.7 39.8827 1034.42 40.2133 1034.2 40.608C1034 40.992 1033.87 41.3653 1033.8 41.728L1033.79 40.8C1033.79 40.704 1033.81 40.544 1033.85 40.32C1033.89 40.096 1033.97 39.8453 1034.09 39.568C1034.21 39.28 1034.36 39.008 1034.55 38.752C1034.76 38.4853 1035.01 38.2667 1035.32 38.096C1035.63 37.9253 1036.01 37.84 1036.44 37.84V39.2Z" fill="black"/>
<path d="M1099.43 43.28V42.08H1104.42V43.28H1099.43ZM1097.32 46L1101.27 35.6H1102.62L1106.6 46H1105.22L1101.75 36.592H1102.14L1098.66 46H1097.32ZM1110.99 46.16C1110.35 46.16 1109.76 45.984 1109.23 45.632C1108.7 45.2693 1108.29 44.7787 1107.98 44.16C1107.67 43.5307 1107.51 42.816 1107.51 42.016C1107.51 41.216 1107.66 40.5013 1107.96 39.872C1108.26 39.2427 1108.67 38.7467 1109.19 38.384C1109.72 38.0213 1110.31 37.84 1110.99 37.84C1111.58 37.84 1112.07 37.952 1112.44 38.176C1112.83 38.3893 1113.12 38.688 1113.32 39.072C1113.52 39.456 1113.66 39.8987 1113.74 40.4C1113.82 40.9013 1113.87 41.44 1113.87 42.016C1113.87 42.4213 1113.82 42.864 1113.74 43.344C1113.65 43.8133 1113.5 44.2667 1113.29 44.704C1113.09 45.1307 1112.8 45.4827 1112.43 45.76C1112.05 46.0267 1111.57 46.16 1110.99 46.16ZM1111.31 44.944C1111.85 44.944 1112.3 44.8107 1112.65 44.544C1113.01 44.2773 1113.28 43.9253 1113.45 43.488C1113.62 43.04 1113.71 42.5493 1113.71 42.016C1113.71 41.4293 1113.62 40.9173 1113.43 40.48C1113.26 40.032 1113 39.6853 1112.63 39.44C1112.28 39.184 1111.84 39.056 1111.31 39.056C1110.51 39.056 1109.89 39.3387 1109.45 39.904C1109.01 40.4587 1108.79 41.1627 1108.79 42.016C1108.79 42.5813 1108.9 43.088 1109.11 43.536C1109.34 43.9733 1109.64 44.32 1110.01 44.576C1110.39 44.8213 1110.83 44.944 1111.31 44.944ZM1113.71 34.8H1114.99V46H1113.82C1113.8 45.7653 1113.77 45.488 1113.74 45.168C1113.72 44.848 1113.71 44.592 1113.71 44.4V34.8ZM1117.31 38H1118.59V46H1117.31V38ZM1121.34 37.84C1121.76 37.84 1122.15 37.904 1122.49 38.032C1122.83 38.16 1123.12 38.3467 1123.35 38.592C1123.59 38.8373 1123.77 39.136 1123.9 39.488C1124.03 39.8293 1124.09 40.2187 1124.09 40.656V46H1122.81V40.976C1122.81 40.3573 1122.67 39.8933 1122.38 39.584C1122.09 39.2747 1121.66 39.12 1121.08 39.12C1120.64 39.12 1120.24 39.232 1119.87 39.456C1119.49 39.68 1119.18 39.9893 1118.94 40.384C1118.7 40.768 1118.56 41.216 1118.51 41.728L1118.49 40.8C1118.54 40.352 1118.65 39.9467 1118.81 39.584C1118.98 39.2213 1119.19 38.912 1119.43 38.656C1119.69 38.3893 1119.98 38.1867 1120.3 38.048C1120.63 37.9093 1120.97 37.84 1121.34 37.84ZM1126.71 37.84C1127.14 37.84 1127.52 37.904 1127.87 38.032C1128.21 38.16 1128.49 38.3467 1128.73 38.592C1128.96 38.8373 1129.15 39.136 1129.27 39.488C1129.4 39.8293 1129.47 40.2187 1129.47 40.656V46H1128.19V40.976C1128.19 40.3573 1128.04 39.8933 1127.75 39.584C1127.47 39.2747 1127.03 39.12 1126.46 39.12C1126.02 39.12 1125.61 39.232 1125.24 39.456C1124.87 39.68 1124.56 39.9893 1124.31 40.384C1124.08 40.768 1123.93 41.216 1123.88 41.728L1123.87 40.8C1123.92 40.352 1124.03 39.9467 1124.19 39.584C1124.36 39.2213 1124.56 38.912 1124.81 38.656C1125.07 38.3893 1125.35 38.1867 1125.67 38.048C1126 37.9093 1126.35 37.84 1126.71 37.84ZM1133.12 34.8V36.352H1131.46V34.8H1133.12ZM1131.65 38H1132.93V46H1131.65V38ZM1135.12 38H1136.4V46H1135.12V38ZM1139.15 37.84C1139.58 37.84 1139.96 37.904 1140.3 38.032C1140.64 38.16 1140.93 38.3467 1141.17 38.592C1141.4 38.8373 1141.58 39.136 1141.71 39.488C1141.84 39.8293 1141.9 40.2187 1141.9 40.656V46H1140.62V40.976C1140.62 40.3573 1140.48 39.8933 1140.19 39.584C1139.9 39.2747 1139.47 39.12 1138.89 39.12C1138.46 39.12 1138.05 39.232 1137.68 39.456C1137.3 39.68 1137 39.9893 1136.75 40.384C1136.52 40.768 1136.37 41.216 1136.32 41.728L1136.3 40.8C1136.36 40.352 1136.46 39.9467 1136.62 39.584C1136.79 39.2213 1137 38.912 1137.25 38.656C1137.5 38.3893 1137.79 38.1867 1138.11 38.048C1138.44 37.9093 1138.79 37.84 1139.15 37.84Z" fill="black"/>
<path d="M228.922 39.3365C229.645 34.5925 232.212 31.847 233.426 31.0425C234.639 31.847 237.175 34.5925 237.898 39.3365C238.63 44.1386 235.235 46.8358 233.428 47.6012C231.621 46.8358 228.189 44.1386 228.922 39.3365Z" fill="#326238"/>
<path d="M233.229 31.2714C233.229 31.1965 233.287 31.1357 233.36 31.1357H233.492C233.564 31.1357 233.623 31.1965 233.623 31.2714V50H233.229V31.2714Z" fill="#326238"/>
<path d="M43.7057 45.0209V39.8621H58.0055C58.5786 39.8621 59.0562 39.7736 59.4383 39.5968C59.8395 39.4002 60.0401 38.9974 60.0401 38.3881C60.0401 37.7593 59.8395 37.3564 59.4383 37.1795C59.0562 37.0026 58.5786 36.9142 58.0055 36.9142H44.1642V49.8849H37V31.0184H56.8879C58.3207 31.0184 59.658 31.1265 60.8998 31.3427C62.1607 31.5392 63.2592 31.9028 64.1953 32.4334C65.1315 32.964 65.867 33.7108 66.4019 34.6738C66.9369 35.6368 67.2043 36.8749 67.2043 38.3881C67.2043 39.9014 66.9369 41.1002 66.4019 41.9845C65.867 42.8689 65.1315 43.5273 64.1953 43.9596C63.2592 44.392 62.1607 44.6769 60.8998 44.8145C59.658 44.9521 58.3207 45.0209 56.8879 45.0209H43.7057Z" fill="#DC9F96"/>
<path d="M77.9437 31.0184V44.2839H94.6506V49.8849H70.7795V31.0184H77.9437Z" fill="#DC9F96"/>
<path d="M102.513 47.0254V42.6036H122.114V47.0254H102.513ZM96.0938 49.8849L108.388 31.0184H116.354L128.763 49.8849H120.882L110.25 32.9935H114.52L103.974 49.8849H96.0938Z" fill="#DC9F96"/>
<path d="M159.802 44.107L157.137 45.6694V31.0184H164.302V49.8849H157.137L135.559 37.0321L138.224 35.4403V49.8849H131.06V31.0184H138.224L159.802 44.107Z" fill="#DC9F96"/>
<path d="M167.162 31.0184H196.965V36.6194H167.162V31.0184ZM178.481 36.2362H185.645V49.8849H178.481V36.2362Z" fill="#DC9F96"/>
<path d="M228.613 31.0184L217.007 45.0798V49.8849H209.842V45.0798L198.236 31.0184H206.69L216.118 43.2521H210.817L220.159 31.0184H228.613Z" fill="#DC9F96"/>
<path d="M252.701 41.4219H249.098C249.102 41.4961 249.111 41.6543 249.127 41.8965C249.146 42.1387 249.201 42.3867 249.291 42.6406C249.385 42.8945 249.543 43.1094 249.766 43.2852C249.992 43.457 250.295 43.543 250.674 43.543C250.881 43.543 251.131 43.4902 251.424 43.3848C251.717 43.2793 251.971 43.0762 252.186 42.7754L252.643 43.0859C252.182 43.8242 251.449 44.1934 250.445 44.1934C249.996 44.1934 249.586 44.1289 249.215 44C248.848 43.8711 248.535 43.6914 248.277 43.4609C248.02 43.2305 247.822 42.959 247.686 42.6465C247.549 42.334 247.48 41.998 247.48 41.6387C247.48 41.166 247.594 40.7285 247.82 40.3262C248.051 39.9238 248.379 39.6035 248.805 39.3652C249.23 39.127 249.717 39.0078 250.264 39.0078C250.799 39.0078 251.25 39.123 251.617 39.3535C251.988 39.584 252.262 39.8828 252.438 40.25C252.613 40.6172 252.701 41.0078 252.701 41.4219ZM251.248 40.8828C251.248 39.9922 250.896 39.5469 250.193 39.5469C249.854 39.5469 249.592 39.6699 249.408 39.916C249.229 40.1621 249.129 40.4844 249.109 40.8828H251.248ZM260.031 44H256.996V43.4609C257.227 43.4609 257.391 43.4316 257.488 43.373C257.59 43.3105 257.652 43.2207 257.676 43.1035C257.699 42.9863 257.711 42.793 257.711 42.5234V40.8652C257.711 40.5332 257.662 40.2715 257.564 40.0801C257.467 39.8848 257.268 39.7871 256.967 39.7871C256.557 39.7871 256.25 39.9453 256.047 40.2617C255.848 40.5742 255.748 40.9355 255.748 41.3457V42.6582C255.748 42.9668 255.793 43.1777 255.883 43.291C255.973 43.4043 256.166 43.4609 256.463 43.4609V44H253.369V43.4609C253.623 43.4609 253.811 43.4395 253.932 43.3965C254.053 43.3496 254.133 43.2695 254.172 43.1562C254.211 43.0391 254.23 42.8555 254.23 42.6055V40.7129C254.23 40.4395 254.178 40.2617 254.072 40.1797C253.967 40.0938 253.732 40.0508 253.369 40.0508V39.5117L255.648 39.0078C255.684 39.2344 255.701 39.4453 255.701 39.6406C255.701 39.6914 255.699 39.7363 255.695 39.7754C255.695 39.8105 255.695 39.8516 255.695 39.8984C255.941 39.6367 256.197 39.4238 256.463 39.2598C256.729 39.0918 257.061 39.0078 257.459 39.0078C257.795 39.0078 258.096 39.0684 258.361 39.1895C258.631 39.3105 258.842 39.4941 258.994 39.7402C259.146 39.9863 259.223 40.2832 259.223 40.6309V42.6055C259.223 42.9336 259.266 43.1582 259.352 43.2793C259.441 43.4004 259.668 43.4609 260.031 43.4609V44ZM265.955 41.4219H262.352C262.355 41.4961 262.365 41.6543 262.381 41.8965C262.4 42.1387 262.455 42.3867 262.545 42.6406C262.639 42.8945 262.797 43.1094 263.02 43.2852C263.246 43.457 263.549 43.543 263.928 43.543C264.135 43.543 264.385 43.4902 264.678 43.3848C264.971 43.2793 265.225 43.0762 265.439 42.7754L265.896 43.0859C265.436 43.8242 264.703 44.1934 263.699 44.1934C263.25 44.1934 262.84 44.1289 262.469 44C262.102 43.8711 261.789 43.6914 261.531 43.4609C261.273 43.2305 261.076 42.959 260.939 42.6465C260.803 42.334 260.734 41.998 260.734 41.6387C260.734 41.166 260.848 40.7285 261.074 40.3262C261.305 39.9238 261.633 39.6035 262.059 39.3652C262.484 39.127 262.971 39.0078 263.518 39.0078C264.053 39.0078 264.504 39.123 264.871 39.3535C265.242 39.584 265.516 39.8828 265.691 40.25C265.867 40.6172 265.955 41.0078 265.955 41.4219ZM264.502 40.8828C264.502 39.9922 264.15 39.5469 263.447 39.5469C263.107 39.5469 262.846 39.6699 262.662 39.916C262.482 40.1621 262.383 40.4844 262.363 40.8828H264.502ZM271.662 39.9336C271.662 40.1602 271.592 40.3398 271.451 40.4727C271.314 40.6016 271.152 40.666 270.965 40.666C270.742 40.666 270.547 40.5566 270.379 40.3379C270.301 40.2402 270.236 40.1699 270.186 40.127C270.135 40.084 270.062 40.0625 269.969 40.0625C269.664 40.0625 269.426 40.2285 269.254 40.5605C269.086 40.8887 269.002 41.2305 269.002 41.5859V42.6055C269.002 42.9336 269.043 43.1582 269.125 43.2793C269.211 43.4004 269.434 43.4609 269.793 43.4609H270.104V44H266.465V43.4609H266.77C267.098 43.4609 267.299 43.3984 267.373 43.2734C267.447 43.1484 267.484 42.9258 267.484 42.6055V40.8945C267.484 40.6328 267.457 40.4453 267.402 40.332C267.352 40.2188 267.258 40.1445 267.121 40.1094C266.984 40.0703 266.766 40.0508 266.465 40.0508V39.5117L268.75 39.0078C268.809 39.207 268.863 39.6309 268.914 40.2793C269.023 40.0488 269.166 39.8379 269.342 39.6465C269.521 39.4551 269.721 39.3008 269.939 39.1836C270.162 39.0664 270.389 39.0078 270.619 39.0078C270.939 39.0078 271.193 39.0977 271.381 39.2773C271.568 39.457 271.662 39.6758 271.662 39.9336ZM278.125 39.5234C278.125 39.6641 278.086 39.7773 278.008 39.8633C277.934 39.9492 277.848 39.9922 277.75 39.9922C277.629 39.9922 277.506 39.9395 277.381 39.834C277.361 39.8223 277.328 39.7988 277.281 39.7637C277.238 39.7246 277.199 39.6953 277.164 39.6758C277.133 39.6562 277.102 39.6465 277.07 39.6465C276.957 39.6465 276.861 39.6855 276.783 39.7637C276.916 39.9316 277.018 40.0918 277.088 40.2441C277.162 40.3926 277.199 40.584 277.199 40.8184C277.199 41.1348 277.127 41.3984 276.982 41.6094C276.842 41.8164 276.654 41.9766 276.42 42.0898C276.189 42.2031 275.953 42.2852 275.711 42.3359C275.473 42.3867 275.166 42.4375 274.791 42.4883C273.869 42.6016 273.408 42.7891 273.408 43.0508C273.408 43.1641 273.477 43.2422 273.613 43.2852C273.754 43.3281 273.961 43.3496 274.234 43.3496H275.125C275.41 43.3496 275.684 43.3652 275.945 43.3965C276.207 43.4238 276.473 43.4902 276.742 43.5957C277.016 43.7012 277.248 43.8711 277.439 44.1055C277.631 44.3398 277.727 44.6484 277.727 45.0312C277.727 45.3164 277.639 45.6035 277.463 45.8926C277.291 46.1816 276.982 46.4258 276.537 46.625C276.092 46.8281 275.492 46.9297 274.738 46.9297C274.148 46.9297 273.562 46.8516 272.98 46.6953C272.402 46.5391 272.113 46.1895 272.113 45.6465C272.113 45.459 272.168 45.2871 272.277 45.1309C272.391 44.9785 272.561 44.9023 272.787 44.9023C272.971 44.9023 273.117 44.9375 273.227 45.0078C273.141 45.1445 273.098 45.2891 273.098 45.4414C273.098 45.6953 273.246 45.916 273.543 46.1035C273.844 46.2949 274.295 46.3906 274.896 46.3906C275.502 46.3906 275.979 46.3027 276.326 46.127C276.678 45.9551 276.854 45.7266 276.854 45.4414C276.854 45.2383 276.777 45.0859 276.625 44.9844C276.477 44.8828 276.262 44.8164 275.98 44.7852C275.703 44.7578 275.27 44.7402 274.68 44.7324C273.965 44.7246 273.402 44.6465 272.992 44.498C272.582 44.3496 272.377 44.0352 272.377 43.5547C272.377 43.1484 272.529 42.8535 272.834 42.6699C273.139 42.4863 273.514 42.3457 273.959 42.248C272.912 42.0488 272.389 41.5566 272.389 40.7715C272.389 40.5176 272.457 40.2559 272.594 39.9863C272.734 39.7168 272.982 39.4863 273.338 39.2949C273.697 39.1035 274.178 39.0078 274.779 39.0078C275.549 39.0078 276.141 39.1875 276.555 39.5469C276.801 39.1953 277.115 39.0195 277.498 39.0195C277.697 39.0195 277.852 39.0703 277.961 39.1719C278.07 39.2695 278.125 39.3867 278.125 39.5234ZM275.723 40.748C275.723 40.416 275.648 40.127 275.5 39.8809C275.352 39.6348 275.119 39.5117 274.803 39.5117C274.459 39.5117 274.217 39.627 274.076 39.8574C273.936 40.084 273.865 40.3574 273.865 40.6777C273.865 40.998 273.93 41.293 274.059 41.5625C274.191 41.8281 274.439 41.9609 274.803 41.9609C275.076 41.9609 275.297 41.8574 275.465 41.6504C275.637 41.4395 275.723 41.1387 275.723 40.748ZM284.693 39.7402C284.525 39.7637 284.395 39.8066 284.301 39.8691C284.207 39.9316 284.121 40.0293 284.043 40.1621C283.969 40.291 283.834 40.5547 283.639 40.9531L281.922 44.5156C281.539 45.3008 281.277 45.8223 281.137 46.0801C281 46.3418 280.844 46.5488 280.668 46.7012C280.492 46.8535 280.273 46.9297 280.012 46.9297C279.832 46.9297 279.676 46.875 279.543 46.7656C279.41 46.6562 279.344 46.5176 279.344 46.3496C279.344 46.1113 279.424 45.9375 279.584 45.8281C279.748 45.7227 279.959 45.6328 280.217 45.5586C280.564 45.457 280.83 45.2715 281.014 45.002C281.197 44.7324 281.355 44.4375 281.488 44.1172L279.256 40.1855C279.15 39.9941 279.055 39.873 278.969 39.8223C278.883 39.7676 278.764 39.7402 278.611 39.7402V39.2012H281.453V39.7402H281.271C281.002 39.7402 280.867 39.8047 280.867 39.9336C280.867 40.0117 280.922 40.1465 281.031 40.3379L282.268 42.5117L283.182 40.6543C283.311 40.3887 283.375 40.207 283.375 40.1094C283.375 39.9922 283.316 39.9023 283.199 39.8398C283.086 39.7734 282.951 39.7402 282.795 39.7402V39.2012H284.693V39.7402ZM294.93 43.9297C294.102 43.9648 293.346 44.0527 292.662 44.1934C292.607 44.0762 292.572 43.8711 292.557 43.5781C292.057 43.9883 291.508 44.1934 290.91 44.1934C290.449 44.1934 290.021 44.0742 289.627 43.8359C289.236 43.5977 288.924 43.2734 288.689 42.8633C288.459 42.4492 288.344 42 288.344 41.5156C288.344 41.2148 288.395 40.916 288.496 40.6191C288.598 40.3223 288.756 40.0508 288.971 39.8047C289.189 39.5547 289.459 39.3594 289.779 39.2188C290.1 39.0781 290.465 39.0078 290.875 39.0078C291.176 39.0078 291.434 39.0449 291.648 39.1191C291.863 39.1934 292.035 39.2793 292.164 39.377C292.293 39.4707 292.424 39.584 292.557 39.7168V37.7949C292.557 37.5332 292.535 37.3457 292.492 37.2324C292.449 37.1191 292.367 37.0469 292.246 37.0156C292.129 36.9844 291.936 36.9648 291.666 36.957V36.418L294.068 35.9141V42.4766C294.068 42.7578 294.08 42.9531 294.104 43.0625C294.131 43.1719 294.203 43.252 294.32 43.3027C294.438 43.3496 294.641 43.3789 294.93 43.3906V43.9297ZM292.557 42.8223V40.4492C292.393 40.25 292.197 40.0684 291.971 39.9043C291.744 39.7402 291.475 39.6582 291.162 39.6582C290.971 39.6582 290.791 39.7109 290.623 39.8164C290.455 39.9219 290.32 40.0566 290.219 40.2207C290.047 40.4902 289.961 40.9453 289.961 41.5859C289.961 42.2344 290.082 42.7227 290.324 43.0508C290.57 43.3789 290.875 43.543 291.238 43.543C291.5 43.543 291.744 43.4785 291.971 43.3496C292.197 43.2207 292.393 43.0449 292.557 42.8223ZM300.385 39.9336C300.385 40.1602 300.314 40.3398 300.174 40.4727C300.037 40.6016 299.875 40.666 299.688 40.666C299.465 40.666 299.27 40.5566 299.102 40.3379C299.023 40.2402 298.959 40.1699 298.908 40.127C298.857 40.084 298.785 40.0625 298.691 40.0625C298.387 40.0625 298.148 40.2285 297.977 40.5605C297.809 40.8887 297.725 41.2305 297.725 41.5859V42.6055C297.725 42.9336 297.766 43.1582 297.848 43.2793C297.934 43.4004 298.156 43.4609 298.516 43.4609H298.826V44H295.188V43.4609H295.492C295.82 43.4609 296.021 43.3984 296.096 43.2734C296.17 43.1484 296.207 42.9258 296.207 42.6055V40.8945C296.207 40.6328 296.18 40.4453 296.125 40.332C296.074 40.2188 295.98 40.1445 295.844 40.1094C295.707 40.0703 295.488 40.0508 295.188 40.0508V39.5117L297.473 39.0078C297.531 39.207 297.586 39.6309 297.637 40.2793C297.746 40.0488 297.889 39.8379 298.064 39.6465C298.244 39.4551 298.443 39.3008 298.662 39.1836C298.885 39.0664 299.111 39.0078 299.342 39.0078C299.662 39.0078 299.916 39.0977 300.104 39.2773C300.291 39.457 300.385 39.6758 300.385 39.9336ZM303.162 36.7168C303.162 36.9512 303.078 37.1523 302.91 37.3203C302.746 37.4844 302.547 37.5664 302.312 37.5664C302.082 37.5664 301.881 37.4824 301.709 37.3145C301.541 37.1426 301.457 36.9434 301.457 36.7168C301.457 36.4824 301.541 36.2812 301.709 36.1133C301.877 35.9453 302.078 35.8613 302.312 35.8613C302.551 35.8613 302.752 35.9434 302.916 36.1074C303.08 36.2715 303.162 36.4746 303.162 36.7168ZM303.824 44H300.643V43.4609H300.812C301.039 43.4609 301.203 43.4297 301.305 43.3672C301.41 43.3047 301.475 43.2168 301.498 43.1035C301.521 42.9902 301.533 42.8242 301.533 42.6055V40.8652C301.533 40.623 301.518 40.4512 301.486 40.3496C301.459 40.248 301.383 40.1738 301.258 40.127C301.137 40.0801 300.932 40.0547 300.643 40.0508V39.5117L303.045 39.0078V42.6055C303.045 42.9336 303.086 43.1582 303.168 43.2793C303.25 43.4004 303.469 43.4609 303.824 43.4609V44ZM311.031 44H307.996V43.4609C308.227 43.4609 308.391 43.4316 308.488 43.373C308.59 43.3105 308.652 43.2207 308.676 43.1035C308.699 42.9863 308.711 42.793 308.711 42.5234V40.8652C308.711 40.5332 308.662 40.2715 308.564 40.0801C308.467 39.8848 308.268 39.7871 307.967 39.7871C307.557 39.7871 307.25 39.9453 307.047 40.2617C306.848 40.5742 306.748 40.9355 306.748 41.3457V42.6582C306.748 42.9668 306.793 43.1777 306.883 43.291C306.973 43.4043 307.166 43.4609 307.463 43.4609V44H304.369V43.4609C304.623 43.4609 304.811 43.4395 304.932 43.3965C305.053 43.3496 305.133 43.2695 305.172 43.1562C305.211 43.0391 305.23 42.8555 305.23 42.6055V40.7129C305.23 40.4395 305.178 40.2617 305.072 40.1797C304.967 40.0938 304.732 40.0508 304.369 40.0508V39.5117L306.648 39.0078C306.684 39.2344 306.701 39.4453 306.701 39.6406C306.701 39.6914 306.699 39.7363 306.695 39.7754C306.695 39.8105 306.695 39.8516 306.695 39.8984C306.941 39.6367 307.197 39.4238 307.463 39.2598C307.729 39.0918 308.061 39.0078 308.459 39.0078C308.795 39.0078 309.096 39.0684 309.361 39.1895C309.631 39.3105 309.842 39.4941 309.994 39.7402C310.146 39.9863 310.223 40.2832 310.223 40.6309V42.6055C310.223 42.9336 310.266 43.1582 310.352 43.2793C310.441 43.4004 310.668 43.4609 311.031 43.4609V44ZM317.986 44H315.08V43.4609C315.424 43.4609 315.596 43.3926 315.596 43.2559C315.596 43.1621 315.553 43.0625 315.467 42.957L314.4 41.5508L313.785 41.9727V42.7051C313.785 42.9395 313.809 43.1113 313.855 43.2207C313.902 43.3262 313.969 43.3926 314.055 43.4199C314.141 43.4473 314.275 43.4609 314.459 43.4609V44H311.424V43.4609C311.654 43.4609 311.83 43.4395 311.951 43.3965C312.072 43.3496 312.156 43.2676 312.203 43.1504C312.25 43.0332 312.273 42.8516 312.273 42.6055V37.6133C312.273 37.4219 312.246 37.2832 312.191 37.1973C312.141 37.1074 312.061 37.0488 311.951 37.0215C311.842 36.9941 311.666 36.9766 311.424 36.9688V36.4297L313.785 35.9141V41.3105L315.432 40.1855C315.541 40.1035 315.609 40.0469 315.637 40.0156C315.668 39.9844 315.684 39.9453 315.684 39.8984C315.684 39.793 315.592 39.7402 315.408 39.7402H315.08V39.2012H317.564V39.7402C317.158 39.7793 316.715 39.9629 316.234 40.291L315.637 40.7129L317.207 42.834C317.371 43.0449 317.508 43.2031 317.617 43.3086C317.73 43.4102 317.854 43.4609 317.986 43.4609V44Z" fill="#326238"/>
</svg>
